<svg width="24" height="25" viewBox="0 0 24 25" fill="none" xmlns="http://www.w3.org/2000/svg">
<g id="ArrowRight">
<path id="Vector" d="M20.7806 13.0906L14.0306 19.8406C13.8899 19.9813 13.699 20.0604 13.5 20.0604C13.301 20.0604 13.1101 19.9813 12.9694 19.8406C12.8286 19.6999 12.7496 19.509 12.7496 19.31C12.7496 19.111 12.8286 18.9201 12.9694 18.7794L18.4397 13.31H3.75C3.55109 13.31 3.36032 13.231 3.21967 13.0903C3.07902 12.9497 3 12.7589 3 12.56C3 12.3611 3.07902 12.1703 3.21967 12.0297C3.36032 11.889 3.55109 11.81 3.75 11.81H18.4397L12.9694 6.34061C12.8286 6.19988 12.7496 6.00901 12.7496 5.80999C12.7496 5.61096 12.8286 5.42009 12.9694 5.27936C13.1101 5.13863 13.301 5.05957 13.5 5.05957C13.699 5.05957 13.8899 5.13863 14.0306 5.27936L20.7806 12.0294C20.8504 12.099 20.9057 12.1817 20.9434 12.2728C20.9812 12.3638 21.0006 12.4614 21.0006 12.56C21.0006 12.6585 20.9812 12.7561 20.9434 12.8472C20.9057 12.9382 20.8504 13.021 20.7806 13.0906Z" fill="white"/>
</g>
</svg>
