<svg width="24" height="24" viewBox="0 0 24 24" fill="none" xmlns="http://www.w3.org/2000/svg">
<g id="MagnifyingGlass">
<path id="Vector" d="M21.5307 20.4696L16.8366 15.7765C18.1971 14.1431 18.8756 12.048 18.7308 9.92715C18.586 7.80629 17.6291 5.82289 16.0592 4.38956C14.4893 2.95623 12.4272 2.18333 10.3019 2.23163C8.17669 2.27993 6.15187 3.14571 4.6487 4.64888C3.14553 6.15205 2.27974 8.17687 2.23144 10.3021C2.18314 12.4274 2.95605 14.4894 4.38938 16.0593C5.82271 17.6293 7.8061 18.5861 9.92697 18.7309C12.0478 18.8757 14.1429 18.1973 15.7763 16.8368L20.4694 21.5308C20.5391 21.6005 20.6218 21.6558 20.7129 21.6935C20.8039 21.7312 20.9015 21.7506 21 21.7506C21.0986 21.7506 21.1962 21.7312 21.2872 21.6935C21.3783 21.6558 21.461 21.6005 21.5307 21.5308C21.6003 21.4612 21.6556 21.3784 21.6933 21.2874C21.731 21.1963 21.7505 21.0988 21.7505 21.0002C21.7505 20.9017 21.731 20.8041 21.6933 20.713C21.6556 20.622 21.6003 20.5393 21.5307 20.4696ZM3.75003 10.5002C3.75003 9.16519 4.14591 7.86015 4.88761 6.75011C5.62931 5.64008 6.68352 4.77492 7.91692 4.26403C9.15032 3.75314 10.5075 3.61946 11.8169 3.87991C13.1263 4.14036 14.329 4.78324 15.273 5.72724C16.217 6.67125 16.8599 7.87398 17.1203 9.18335C17.3808 10.4927 17.2471 11.8499 16.7362 13.0833C16.2253 14.3167 15.3602 15.3709 14.2501 16.1126C13.1401 16.8543 11.8351 17.2502 10.5 17.2502C8.71043 17.2482 6.99469 16.5364 5.72925 15.271C4.46381 14.0056 3.75202 12.2898 3.75003 10.5002Z" fill="#969696"/>
</g>
</svg>
